# Blender 4.5.3 LTS
# www.blender.org
mtllib line.mtl
o NURBSパス
v 65.770538 22.922342 75.518555
v 65.816597 22.811926 74.977066
v 65.857445 22.713978 74.496704
v 65.893829 22.626772 74.069023
v 65.926376 22.548733 73.686325
v 65.955696 22.478436 73.341591
v 65.982323 22.414600 73.028534
v 66.006729 22.356102 72.741615
v 66.029312 22.301945 72.476036
v 66.050438 22.251301 72.227676
v 66.070396 22.203484 71.993172
v 66.089386 22.157944 71.769844
v 66.107590 22.114298 71.555801
v 66.125107 22.072296 71.349815
v 66.141998 22.031796 71.151184
v 66.158295 21.992670 70.959320
v 66.174049 21.954807 70.773628
v 66.189255 21.918085 70.593552
v 66.203949 21.882404 70.418549
v 66.218094 21.847660 70.248154
v 66.231728 21.813759 70.081871
v 66.244766 21.780605 69.919243
v 66.257240 21.748114 69.759872
v 66.269066 21.716206 69.603325
v 66.280205 21.684801 69.449242
v 66.290581 21.653835 69.297287
v 66.300148 21.623241 69.147125
v 66.308815 21.592957 68.998451
v 66.316559 21.562933 68.851021
v 66.323349 21.533115 68.704567
v 66.329147 21.503462 68.558884
v 66.333946 21.473932 68.413780
v 66.337784 21.444494 68.269096
v 66.340652 21.415121 68.124687
v 66.342628 21.385790 67.980438
v 66.343735 21.356480 67.836273
v 66.344063 21.327181 67.692123
v 66.343681 21.297888 67.547974
v 66.342682 21.268591 67.403793
v 66.341171 21.239300 67.259605
v 66.339233 21.210007 67.115402
v 66.336952 21.180714 66.971191
v 66.334389 21.151423 66.826965
v 66.331627 21.122131 66.682739
v 66.328690 21.092838 66.538506
v 66.325653 21.063549 66.394264
v 66.322548 21.034258 66.250023
v 66.319405 21.004969 66.105789
v 66.316231 20.975676 65.961540
v 66.313057 20.946386 65.817314
v 66.309875 20.917093 65.673065
v 66.306709 20.887804 65.528831
v 66.303535 20.858515 65.384583
v 66.300369 20.829226 65.240341
v 66.297180 20.799931 65.096100
v 66.293991 20.770638 64.951851
v 66.290833 20.741350 64.807610
v 66.287651 20.712059 64.663368
v 66.284477 20.682768 64.519127
v 66.281303 20.653477 64.374886
v 66.278122 20.624187 64.230644
v 66.274948 20.594894 64.086403
v 66.271782 20.565605 63.942165
v 66.268600 20.536314 63.797932
v 66.265404 20.507021 63.653675
v 66.262184 20.477732 63.509449
v 66.258919 20.448441 63.365200
v 66.255554 20.419149 63.220982
v 66.252068 20.389862 63.076771
v 66.248405 20.360571 62.932560
v 66.244484 20.331280 62.788372
v 66.240265 20.301991 62.644211
v 66.235664 20.272701 62.500080
v 66.230591 20.243414 62.355980
v 66.224960 20.214128 62.211922
v 66.218666 20.184841 62.067917
v 66.211639 20.155556 61.923965
v 66.203796 20.126272 61.780079
v 66.195076 20.096991 61.636257
v 66.185455 20.067711 61.492508
v 66.174889 20.038429 61.348820
v 66.163399 20.009153 61.205212
v 66.150978 19.979874 61.061661
v 66.137657 19.950602 60.918201
v 66.123489 19.921326 60.774788
v 66.108528 19.892056 60.631443
v 66.092850 19.862783 60.488152
v 66.076553 19.833515 60.344906
v 66.059731 19.804245 60.201691
v 66.042465 19.774975 60.058514
v 66.024849 19.745705 59.915367
v 66.006943 19.716436 59.772243
v 65.988831 19.687168 59.629135
v 65.970558 19.657902 59.486042
v 65.952171 19.628637 59.342953
v 65.933693 19.599369 59.199863
v 65.915184 19.570099 59.056786
v 65.896645 19.540833 58.913708
v 65.878105 19.511566 58.770630
v 65.859566 19.482300 58.627560
v 65.841019 19.453032 58.484482
v 65.822487 19.423765 58.341400
v 65.803940 19.394497 58.198322
v 65.785400 19.365232 58.055252
v 65.766853 19.335964 57.912174
v 65.748314 19.306696 57.769096
v 65.729767 19.277428 57.626015
v 65.711235 19.248163 57.482944
v 65.692696 19.218897 57.339870
v 65.674149 19.189629 57.196793
v 65.655609 19.160362 57.053711
v 65.637054 19.131094 56.910629
v 65.618523 19.101828 56.767555
v 65.599960 19.072559 56.624477
v 65.581390 19.043293 56.481419
v 65.562759 19.014029 56.338360
v 65.544052 18.984760 56.195312
v 65.525208 18.955492 56.052280
v 65.506210 18.926228 55.909294
v 65.486969 18.896961 55.766338
v 65.467438 18.867695 55.623451
v 65.447525 18.838428 55.480618
v 65.427177 18.809166 55.337875
v 65.406296 18.779903 55.195236
v 65.384773 18.750641 55.052715
v 65.362526 18.721380 54.910324
v 65.339470 18.692120 54.768074
v 65.315567 18.662861 54.625977
v 65.290764 18.633604 54.484062
v 65.265060 18.604347 54.342304
v 65.238426 18.575092 54.200726
v 65.210869 18.545839 54.059303
v 65.182434 18.516588 53.918053
v 65.153145 18.487337 53.776962
v 65.123062 18.458088 53.636013
v 65.092270 18.428841 53.495197
v 65.060852 18.399593 53.354485
v 65.028900 18.370344 53.213882
v 64.996521 18.341101 53.073368
v 64.963783 18.311857 52.932911
v 64.930756 18.282614 52.792507
v 64.897499 18.253366 52.652134
v 64.864075 18.224121 52.511795
v 64.830536 18.194878 52.371494
v 64.796913 18.165634 52.231190
v 64.763260 18.136391 52.090904
v 64.729576 18.107147 51.950626
v 64.695877 18.077904 51.810341
v 64.662186 18.048660 51.670063
v 64.628471 18.019415 51.529766
v 64.594795 17.990175 51.389500
v 64.561096 17.960930 51.249218
v 64.527397 17.931686 51.108929
v 64.493698 17.902443 50.968651
v 64.459999 17.873199 50.828365
v 64.426315 17.843956 50.688091
v 64.392624 17.814713 50.547802
v 64.358917 17.785469 50.407520
v 64.325226 17.756226 50.267242
v 64.291519 17.726982 50.126965
v 64.257820 17.697737 49.986675
v 64.224129 17.668493 49.846397
v 64.190430 17.639252 49.706116
v 64.156700 17.610008 49.565842
v 64.122925 17.580763 49.425583
v 64.089081 17.551521 49.285351
v 64.055107 17.522278 49.145149
v 64.020988 17.493036 49.004997
v 63.986645 17.463793 48.864902
v 63.952023 17.434551 48.724903
v 63.917042 17.405308 48.585003
v 63.881638 17.376066 48.445225
v 63.845722 17.346827 48.305603
v 63.809193 17.317587 48.166164
v 63.771965 17.288347 48.026924
v 63.733982 17.259111 47.887917
v 63.695164 17.229877 47.749161
v 63.655476 17.200642 47.610664
v 63.614902 17.171410 47.472431
v 63.573410 17.142176 47.334461
v 63.531059 17.112949 47.196762
v 63.487804 17.083719 47.059322
v 63.443726 17.054489 46.922127
v 63.398888 17.025265 46.785160
v 63.353329 16.996040 46.648403
v 63.307144 16.966812 46.511833
v 63.260452 16.937592 46.375427
v 63.213303 16.908367 46.239136
v 63.165806 16.879147 46.102962
v 63.118015 16.849924 45.966877
v 63.070007 16.820704 45.830853
v 63.021820 16.791481 45.694878
v 62.973526 16.762260 45.558937
v 62.925140 16.733040 45.423019
v 62.876709 16.703819 45.287121
v 62.828259 16.674599 45.151234
v 62.779785 16.645376 45.015335
v 62.731323 16.616156 44.879452
v 62.682861 16.586937 44.743568
v 62.634392 16.557714 44.607674
v 62.585926 16.528494 44.471786
v 62.537472 16.499275 44.335903
v 62.488998 16.470055 44.200008
v 62.440529 16.440834 44.064121
v 62.392075 16.411613 43.928234
v 62.343597 16.382391 43.792347
v 62.295132 16.353170 43.656456
v 62.246662 16.323950 43.520569
v 62.198196 16.294729 43.384678
v 62.149734 16.265509 43.248791
v 62.101265 16.236288 43.112904
v 62.052792 16.207066 42.977016
v 62.004292 16.177843 42.841133
v 61.955765 16.148624 42.705276
v 61.907166 16.119406 42.569447
v 61.858448 16.090183 42.433662
v 61.809586 16.060963 42.297932
v 61.760532 16.031746 42.162296
v 61.711208 16.002525 42.026764
v 61.661552 15.973306 41.891369
v 61.611500 15.944089 41.756153
v 61.560955 15.914870 41.621124
v 61.509834 15.885653 41.486343
v 61.458061 15.856438 41.351841
v 61.405552 15.827223 41.217644
v 61.352261 15.798010 41.083767
v 61.298130 15.768799 40.950253
v 61.243145 15.739588 40.817089
v 61.187294 15.710378 40.684280
v 61.130573 15.681169 40.551842
v 61.073013 15.651961 40.419750
v 61.014652 15.622757 40.287998
v 60.955547 15.593555 40.156563
v 60.895737 15.564351 40.025414
v 60.835320 15.535147 39.894516
v 60.774391 15.505946 39.763836
v 60.713032 15.476746 39.633339
v 60.651314 15.447546 39.502987
v 60.589310 15.418344 39.372749
v 60.527084 15.389145 39.242611
v 60.464691 15.359945 39.112545
v 60.402187 15.330748 38.982525
v 60.339592 15.301548 38.852539
v 60.276951 15.272351 38.722576
v 60.214275 15.243152 38.592625
v 60.151588 15.213951 38.462677
v 60.088905 15.184753 38.332729
v 60.026226 15.155555 38.202785
v 59.963539 15.126354 38.072834
v 59.900856 15.097157 37.942886
v 59.838184 15.067960 37.812943
v 59.775490 15.038757 37.682991
v 59.712811 15.009562 37.553051
v 59.650127 14.980363 37.423100
v 59.587440 14.951163 37.293148
v 59.524754 14.921964 37.163204
v 59.462070 14.892766 37.033257
v 59.399399 14.863569 36.903316
v 59.336708 14.834369 36.773365
v 59.274029 14.805170 36.643417
v 59.211334 14.775970 36.513470
v 59.148636 14.746775 36.383533
v 59.085892 14.717575 36.253620
v 59.023083 14.688375 36.123741
v 58.960178 14.659176 35.993916
v 58.897137 14.629977 35.864162
v 58.833920 14.600780 35.734509
v 58.770454 14.571584 35.604996
v 58.706692 14.542387 35.475643
v 58.642548 14.513190 35.346497
v 58.577950 14.483994 35.217606
v 58.512825 14.454800 35.088997
v 58.447075 14.425606 34.960735
v 58.380627 14.396410 34.832848
v 58.313454 14.367220 34.705376
v 58.245480 14.338027 34.578331
v 58.176704 14.308839 34.451736
v 58.107113 14.279652 34.325588
v 58.036697 14.250467 34.199898
v 57.965462 14.221278 34.074638
v 57.893475 14.192095 33.949810
v 57.820763 14.162910 33.825375
v 57.747387 14.133730 33.701309
v 57.673409 14.104548 33.577564
v 57.598942 14.075366 33.454094
v 57.524052 14.046185 33.330853
v 57.448826 14.017007 33.207798
v 57.373322 13.987829 33.084908
v 57.297596 13.958651 32.962128
v 57.221703 13.929472 32.839439
v 57.145687 13.900294 32.716820
v 57.069588 13.871116 32.594246
v 56.993450 13.841938 32.471699
v 56.917282 13.812761 32.349163
v 56.841099 13.783583 32.226635
v 56.764915 13.754405 32.104115
v 56.688721 13.725226 31.981585
v 56.612534 13.696049 31.859068
v 56.536354 13.666872 31.736538
v 56.460171 13.637695 31.614016
v 56.383972 13.608515 31.491488
v 56.307789 13.579336 31.368963
v 56.231606 13.550160 31.246437
v 56.155411 13.520980 31.123911
v 56.079227 13.491803 31.001387
v 56.003044 13.462626 30.878860
v 55.926861 13.433448 30.756338
v 55.850666 13.404269 30.633810
v 55.774487 13.375093 30.511290
v 55.698296 13.345915 30.388767
v 55.622089 13.316736 30.266256
v 55.545864 13.287560 30.143768
v 55.469559 13.258380 30.021311
v 55.393188 13.229204 29.898920
v 55.316689 13.200027 29.776617
v 55.240013 13.170848 29.654425
v 55.163128 13.141672 29.532387
v 55.085964 13.112495 29.410545
v 55.008453 13.083319 29.288939
v 54.930542 13.054144 29.167625
v 54.852135 13.024971 29.046656
v 54.773148 12.995796 28.926079
v 54.693535 12.966625 28.805948
v 54.613228 12.937454 28.686302
v 54.532185 12.908283 28.567165
v 54.450390 12.879114 28.448551
v 54.367828 12.849947 28.330484
v 54.284489 12.820779 28.212942
v 54.200409 12.791615 28.095936
v 54.115593 12.762449 27.979431
v 54.030102 12.733286 27.863401
v 53.943977 12.704123 27.747807
v 53.857300 12.674963 27.632610
v 53.770134 12.645801 27.517744
v 53.682571 12.616639 27.403156
v 53.594685 12.587481 27.288803
v 53.506527 12.558321 27.174631
v 53.418156 12.529161 27.060610
v 53.329628 12.500003 26.946697
v 53.240982 12.470844 26.832869
v 53.152260 12.441687 26.719097
v 53.063484 12.412528 26.605362
v 52.974670 12.383368 26.491640
v 52.885857 12.354211 26.377935
v 52.797035 12.325052 26.264231
v 52.708210 12.295893 26.150520
v 52.619400 12.266737 26.036818
v 52.530579 12.237577 25.923107
v 52.441761 12.208420 25.809404
v 52.352936 12.179262 25.695694
v 52.264118 12.150104 25.581989
v 52.175301 12.120946 25.468281
v 52.086472 12.091786 25.354572
v 51.997662 12.062630 25.240871
v 51.908833 12.033470 25.127161
v 51.820015 12.004313 25.013454
v 51.731190 11.975153 24.899748
v 51.642372 11.945994 24.786043
v 51.553543 11.916836 24.672335
v 51.464714 11.887678 24.558643
v 51.375851 11.858520 24.444969
v 51.286945 11.829363 24.331345
v 51.197960 11.800205 24.217777
v 51.108860 11.771045 24.104309
v 51.019619 11.741888 23.990969
v 50.930176 11.712729 23.877800
v 50.840500 11.683575 23.764845
v 50.750504 11.654417 23.652163
v 50.660141 11.625261 23.539797
v 50.569324 11.596106 23.427824
v 50.478012 11.566954 23.316296
v 50.386105 11.537799 23.205271
v 50.293571 11.508646 23.094795
v 50.200371 11.479495 22.984901
v 50.106476 11.450344 22.875610
v 50.011875 11.421196 22.766937
v 49.916565 11.392048 22.658878
v 49.820557 11.362900 22.551422
v 49.723881 11.333755 22.444555
v 49.626568 11.304608 22.338232
v 49.528679 11.275465 22.232426
v 49.430260 11.246321 22.127068
v 49.331398 11.217178 22.022102
v 49.232151 11.188035 21.917465
v 49.132595 11.158894 21.813099
v 49.032787 11.129752 21.708954
v 48.932781 11.100612 21.604980
v 48.832634 11.071472 21.501143
v 48.732357 11.042331 21.397394
v 48.632019 11.013191 21.293724
v 48.531616 10.984051 21.190092
v 48.431190 10.954909 21.086487
v 48.330757 10.925771 20.982891
v 48.230309 10.896628 20.879292
v 48.129875 10.867490 20.775703
v 48.029423 10.838348 20.672112
v 47.928989 10.809210 20.568516
v 47.828541 10.780067 20.464926
v 47.728096 10.750927 20.361330
v 47.627659 10.721787 20.257736
v 47.527222 10.692648 20.154146
v 47.426773 10.663507 20.050554
v 47.326336 10.634367 19.946955
v 47.225895 10.605227 19.843367
v 47.125450 10.576086 19.739771
v 47.025005 10.546946 19.636179
v 46.924561 10.517803 19.532583
v 46.824116 10.488665 19.428993
v 46.723667 10.459525 19.325417
v 46.623196 10.430385 19.221859
v 46.522682 10.401245 19.118347
v 46.422096 10.372104 19.014898
v 46.321426 10.342965 18.911558
v 46.220623 10.313826 18.808357
v 46.119644 10.284686 18.705341
v 46.018448 10.255545 18.602554
v 45.916996 10.226409 18.500063
v 45.815201 10.197269 18.397923
v 45.713017 10.168132 18.296206
v 45.610367 10.138992 18.194979
v 45.507217 10.109857 18.094315
v 45.403496 10.080723 17.994255
v 45.299183 10.051589 17.894840
v 45.194237 10.022455 17.796101
v 45.088657 9.993321 17.698040
v 44.982445 9.964191 17.600674
v 44.875599 9.935061 17.503984
v 44.768147 9.905931 17.407949
v 44.660114 9.876801 17.312531
v 44.551556 9.847675 17.217691
v 44.442513 9.818547 17.123365
v 44.333069 9.789422 17.029490
v 44.223263 9.760296 16.935982
v 44.113174 9.731170 16.842785
v 44.002861 9.702046 16.749846
v 43.892357 9.672921 16.657101
v 43.781708 9.643797 16.564510
v 43.670956 9.614673 16.472031
v 43.560123 9.585548 16.379633
v 43.449245 9.556423 16.287289
v 43.338348 9.527300 16.194973
v 43.227428 9.498175 16.102667
v 43.116512 9.469050 16.010368
v 43.005585 9.439924 15.918067
v 42.894672 9.410803 15.825772
v 42.783752 9.381678 15.733467
v 42.672836 9.352554 15.641171
v 42.561913 9.323428 15.548871
v 42.451000 9.294306 15.456574
v 42.340084 9.265182 15.364276
v 42.229156 9.236056 15.271973
v 42.118237 9.206932 15.179673
v 42.007320 9.177809 15.087377
v 41.896408 9.148685 14.995081
v 41.785484 9.119561 14.902778
v 41.674564 9.090436 14.810479
v 41.563652 9.061314 14.718185
v 41.452721 9.032189 14.625895
v 41.341774 9.003064 14.533629
v 41.230797 8.973940 14.441409
v 41.119762 8.944816 14.349266
v 41.008659 8.915693 14.257225
v 40.897434 8.886570 14.165334
v 40.786060 8.857445 14.073633
v 40.674507 8.828322 13.982186
v 40.562725 8.799200 13.891047
v 40.450657 8.770078 13.800288
v 40.338249 8.740954 13.709980
v 40.225456 8.711835 13.620203
v 40.112202 8.682714 13.531027
v 39.998466 8.653594 13.442509
v 39.884205 8.624475 13.354688
v 39.769390 8.595356 13.267603
v 39.654026 8.566240 13.181269
v 39.538097 8.537124 13.095684
v 39.421616 8.508009 13.010843
v 39.304596 8.478894 12.926721
v 39.187057 8.449779 12.843280
v 39.069057 8.420666 12.760479
v 38.950630 8.391555 12.678246
v 38.831825 8.362441 12.596507
v 38.712715 8.333330 12.515190
v 38.593349 8.304221 12.434224
v 38.473763 8.275108 12.353535
v 38.354004 8.245997 12.273070
v 38.234123 8.216887 12.192782
v 38.114155 8.187778 12.112621
v 37.994102 8.158668 12.032550
v 37.874020 8.129559 11.952542
v 37.753899 8.100447 11.872562
v 37.633778 8.071338 11.792605
v 37.513653 8.042229 11.712652
v 37.393520 8.013119 11.632698
v 37.273388 7.984009 11.552743
v 37.153255 7.954898 11.472791
v 37.033127 7.925789 11.392839
v 36.912998 7.896680 11.312886
v 36.792862 7.867569 11.232930
v 36.672733 7.838459 11.152977
v 36.552597 7.809349 11.073025
v 36.432468 7.780239 10.993072
v 36.312344 7.751131 10.913120
v 36.192211 7.722020 10.833164
v 36.072075 7.692909 10.753211
v 35.951946 7.663800 10.673259
v 35.831818 7.634691 10.593308
v 35.711670 7.605579 10.513362
v 35.591522 7.576469 10.433444
v 35.471352 7.547361 10.353570
v 35.351128 7.518251 10.273769
v 35.230843 7.489141 10.194076
v 35.110462 7.460031 10.114538
v 34.989967 7.430923 10.035203
v 34.869316 7.401813 9.956128
v 34.748474 7.372704 9.877378
v 34.627396 7.343595 9.799024
v 34.506039 7.314488 9.721147
v 34.384346 7.285380 9.643828
v 34.262283 7.256274 9.567149
v 34.139793 7.227166 9.491162
v 34.016876 7.198061 9.415931
v 33.893490 7.168957 9.341480
v 33.769634 7.139854 9.267834
v 33.645287 7.110749 9.194990
v 33.520477 7.081646 9.122951
v 33.395206 7.052545 9.051688
v 33.269493 7.023443 8.981164
v 33.143379 6.994344 8.911330
v 33.016891 6.965242 8.842113
v 32.890083 6.936142 8.773442
v 32.763012 6.907045 8.705233
v 32.635708 6.877946 8.637403
v 32.508213 6.848845 8.569884
v 32.380585 6.819750 8.502616
v 32.252838 6.790651 8.435538
v 32.125004 6.761554 8.368606
v 31.997101 6.732454 8.301772
v 31.869167 6.703356 8.235007
v 31.741213 6.674260 8.168284
v 31.613245 6.645162 8.101581
v 31.485277 6.616066 8.034884
v 31.357296 6.586966 7.968184
v 31.229321 6.557868 7.901489
v 31.101349 6.528771 7.834793
v 30.973377 6.499674 7.768097
v 30.845398 6.470575 7.701398
v 30.717424 6.441477 7.634701
v 30.589453 6.412380 7.568006
v 30.461481 6.383283 7.501310
v 30.333498 6.354183 7.434610
v 30.205526 6.325087 7.367916
v 30.077555 6.295989 7.301219
v 29.949585 6.266891 7.234523
v 29.821609 6.237794 7.167829
v 29.693630 6.208695 7.101130
v 29.565649 6.179597 7.034442
v 29.437666 6.150501 6.967778
v 29.309660 6.121403 6.901158
v 29.181610 6.092304 6.834609
v 29.053522 6.063208 6.768175
v 28.925362 6.034111 6.701895
v 28.797098 6.005013 6.635823
v 28.668716 5.975915 6.570017
v 28.540182 5.946818 6.504548
v 28.411469 5.917723 6.439490
v 28.282526 5.888627 6.374923
v 28.153316 5.859531 6.310938
v 28.023800 5.830435 6.247613
v 27.893959 5.801341 6.185024
v 27.763754 5.772245 6.123221
v 27.633175 5.743153 6.062242
v 27.502213 5.714059 6.002107
v 27.370857 5.684967 5.942829
v 27.239122 5.655875 5.884399
v 27.107010 5.626784 5.826794
v 26.974533 5.597693 5.769975
v 26.841719 5.568602 5.713892
v 26.708612 5.539513 5.658477
v 26.575233 5.510424 5.603646
v 26.441631 5.481336 5.549312
v 26.307833 5.452246 5.495387
v 26.173889 5.423158 5.441803
v 26.039818 5.394069 5.388490
v 25.905655 5.364982 5.335386
v 25.771412 5.335892 5.282438
v 25.637127 5.306805 5.229604
v 25.502806 5.277717 5.176847
v 25.368464 5.248630 5.124134
v 25.234104 5.219541 5.071442
v 25.099747 5.190454 5.018762
v 24.965387 5.161365 4.966081
v 24.831028 5.132277 4.913402
v 24.696674 5.103190 4.860722
v 24.562313 5.074102 4.808040
v 24.427952 5.045014 4.755361
v 24.293596 5.015926 4.702681
v 24.159235 4.986838 4.650001
v 24.024878 4.957750 4.597320
v 23.890520 4.928663 4.544640
v 23.756165 4.899576 4.491960
v 23.621805 4.870488 4.439281
v 23.487442 4.841399 4.386599
v 23.353086 4.812312 4.333919
v 23.218723 4.783223 4.281240
v 23.084368 4.754136 4.228569
v 22.949997 4.725048 4.175918
v 22.815615 4.695961 4.123309
v 22.681208 4.666873 4.070774
v 22.546768 4.637785 4.018351
v 22.412271 4.608698 3.966083
v 22.277700 4.579609 3.914022
v 22.143047 4.550522 3.862236
v 22.008282 4.521435 3.810791
v 21.873375 4.492348 3.759762
v 21.738298 4.463261 3.709235
v 21.603029 4.434175 3.659305
v 21.467531 4.405089 3.610057
v 21.331779 4.376003 3.561565
v 21.195765 4.346919 3.513887
v 21.059456 4.317832 3.467062
v 20.922861 4.288748 3.421121
v 20.785971 4.259665 3.376071
v 20.648790 4.230582 3.331906
v 20.511311 4.201498 3.288603
v 20.373564 4.172415 3.246130
v 20.235561 4.143333 3.204429
v 20.097324 4.114252 3.163434
v 19.958879 4.085170 3.123058
v 19.820259 4.056088 3.083211
v 19.681496 4.027008 3.043806
v 19.542608 3.997927 3.004761
v 19.403629 3.968847 2.966007
v 19.264568 3.939765 2.927477
v 19.125456 3.910685 2.889120
v 18.986300 3.881605 2.850884
v 18.847120 3.852525 2.812732
v 18.707918 3.823444 2.774629
v 18.568710 3.794363 2.736553
v 18.429501 3.765284 2.698489
v 18.290291 3.736203 2.660425
v 18.151073 3.707122 2.622361
v 18.011864 3.678042 2.584298
v 17.872654 3.648962 2.546235
v 17.733444 3.619882 2.508172
v 17.594234 3.590802 2.470109
v 17.455015 3.561720 2.432044
v 17.315805 3.532640 2.393981
v 17.176596 3.503560 2.355918
v 17.037386 3.474480 2.317855
v 16.898169 3.445399 2.279790
v 16.758959 3.416319 2.241727
v 16.619749 3.387239 2.203665
v 16.480537 3.358159 2.165602
v 16.341326 3.329079 2.127546
v 16.202101 3.299997 2.089508
v 16.062880 3.270917 2.051512
v 15.923638 3.241837 2.013588
v 15.784375 3.212758 1.975772
v 15.645070 3.183676 1.938110
v 15.505727 3.154596 1.900658
v 15.366326 3.125517 1.863478
v 15.226851 3.096437 1.826640
v 15.087278 3.067357 1.790219
v 14.947600 3.038277 1.754307
v 14.807794 3.009198 1.718997
v 14.667834 2.980119 1.684379
v 14.527710 2.951041 1.650531
v 14.387396 2.921960 1.617514
v 14.246902 2.892883 1.585374
v 14.106210 2.863805 1.554140
v 13.965318 2.834727 1.523822
v 13.824222 2.805649 1.494417
v 13.682937 2.776572 1.465906
v 13.541470 2.747496 1.438252
v 13.399825 2.718419 1.411402
v 13.258016 2.689342 1.385286
v 13.116070 2.660266 1.359822
v 12.974006 2.631191 1.334913
v 12.831840 2.602115 1.310468
v 12.689592 2.573040 1.286404
v 12.547271 2.543963 1.262646
v 12.404902 2.514888 1.239130
v 12.262494 2.485813 1.215796
v 12.120062 2.456738 1.192593
v 11.977600 2.427662 1.169479
v 11.835132 2.398587 1.146421
v 11.692657 2.369511 1.123394
v 11.550183 2.340437 1.100379
v 11.407700 2.311360 1.077365
v 11.265224 2.282285 1.054353
v 11.122746 2.253211 1.031340
v 10.980270 2.224136 1.008327
v 10.837790 2.195060 0.985315
v 10.695309 2.165984 0.962301
v 10.552833 2.136909 0.939289
v 10.410357 2.107834 0.916276
v 10.267879 2.078759 0.893263
v 10.125397 2.049683 0.870250
v 9.982920 2.020608 0.847237
v 9.840443 1.991533 0.824225
v 9.697966 1.962458 0.801212
v 9.555483 1.933382 0.778199
v 9.413006 1.904307 0.755192
v 9.270527 1.875232 0.732203
v 9.128043 1.846157 0.709252
v 8.985553 1.817082 0.686370
v 8.843044 1.788006 0.663593
v 8.700525 1.758931 0.640968
v 8.557986 1.729856 0.618549
v 8.415417 1.700781 0.596397
v 8.272804 1.671705 0.574584
v 8.130154 1.642630 0.553188
v 7.987450 1.613556 0.532298
v 7.844682 1.584481 0.512007
v 7.701832 1.555405 0.492409
v 7.558906 1.526331 0.473588
v 7.415889 1.497257 0.455606
v 7.272778 1.468183 0.438511
v 7.129568 1.439109 0.422334
v 6.986251 1.410034 0.407089
v 6.842842 1.380960 0.392775
v 6.699334 1.351887 0.379374
v 6.555733 1.322814 0.366850
v 6.412035 1.293739 0.355150
v 6.268264 1.264666 0.344209
v 6.124420 1.235594 0.333940
v 5.980514 1.206521 0.324247
v 5.836551 1.177447 0.315037
v 5.692551 1.148374 0.306225
v 5.548516 1.119302 0.297734
v 5.404454 1.090229 0.289495
v 5.260373 1.061157 0.281448
v 5.116269 1.032083 0.273541
v 4.972162 1.003010 0.265730
v 4.828048 0.973938 0.257979
v 4.683931 0.944865 0.250261
v 4.539805 0.915792 0.242557
v 4.395686 0.886719 0.234857
v 4.251567 0.857647 0.227157
v 4.107448 0.828574 0.219457
v 3.963321 0.799501 0.211756
v 3.819203 0.770428 0.204056
v 3.675084 0.741356 0.196356
v 3.530964 0.712283 0.188656
v 3.386845 0.683211 0.180956
v 3.242719 0.654137 0.173255
v 3.098600 0.625065 0.165555
v 2.954480 0.595992 0.157855
v 2.810362 0.566920 0.150155
v 2.666236 0.537846 0.142454
v 2.522116 0.508774 0.134754
v 2.377997 0.479701 0.127059
v 2.233878 0.450629 0.119379
v 2.089752 0.421555 0.111735
v 1.945632 0.392482 0.104156
v 1.801513 0.363410 0.096679
v 1.657394 0.334338 0.089347
v 1.513275 0.305265 0.082216
v 1.369149 0.276191 0.075346
v 1.225030 0.247119 0.068808
v 1.080911 0.218047 0.062679
v 0.936792 0.188974 0.057047
v 0.792666 0.159900 0.052007
v 0.648547 0.130828 0.047654
v 0.504427 0.101756 0.044072
v 0.360308 0.072683 0.041327
v 0.216182 0.043609 0.039469
v 0.072063 0.014537 0.038532
v -0.072056 -0.014536 0.038532
v -0.216175 -0.043608 0.039469
v -0.360295 -0.072680 0.041327
v -0.504421 -0.101754 0.044071
v -0.648540 -0.130827 0.047654
v -0.792659 -0.159899 0.052006
v -0.936778 -0.188971 0.057047
v -1.080904 -0.218045 0.062679
v -1.225023 -0.247118 0.068807
v -1.369142 -0.276190 0.075346
v -1.513262 -0.305263 0.082215
v -1.657387 -0.334336 0.089347
v -1.801507 -0.363409 0.096678
v -1.945626 -0.392481 0.104156
v -2.089745 -0.421554 0.111735
v -2.233864 -0.450626 0.119378
v -2.377990 -0.479700 0.127058
v -2.522110 -0.508772 0.134754
v -2.666236 -0.537846 0.142454
v -2.810348 -0.566917 0.150154
v -2.954473 -0.595991 0.157854
v -3.098586 -0.625062 0.165554
v -3.242712 -0.654136 0.173255
v -3.386838 -0.683210 0.180955
v -3.530951 -0.712281 0.188655
v -3.675076 -0.741354 0.196355
v -3.819189 -0.770425 0.204055
v -3.963315 -0.799499 0.211756
v -4.107440 -0.828573 0.219456
v -4.251554 -0.857644 0.227156
v -4.395680 -0.886718 0.234857
v -4.539806 -0.915792 0.242557
v -4.683918 -0.944863 0.250260
v -4.828041 -0.973936 0.257978
v -4.972149 -1.003008 0.265729
v -5.116262 -1.032081 0.273540
v -5.260366 -1.061155 0.281448
v -5.404441 -1.090226 0.289495
v -5.548509 -1.119300 0.297734
v -5.692537 -1.148371 0.306224
v -5.836545 -1.177446 0.315037
v -5.980508 -1.206519 0.324247
v -6.124407 -1.235591 0.333939
v -6.268257 -1.264665 0.344208
v -6.412036 -1.293740 0.355150
v -6.555719 -1.322811 0.366848
v -6.699327 -1.351886 0.379373
v -6.842828 -1.380958 0.392774
v -6.986245 -1.410033 0.407088
v -7.129562 -1.439108 0.422333
v -7.272765 -1.468180 0.438509
v -7.415883 -1.497255 0.455605
v -7.558892 -1.526328 0.473586
v -7.701825 -1.555404 0.492408
v -7.844675 -1.584480 0.512006
v -7.987436 -1.613553 0.532296
v -8.130146 -1.642628 0.553187
v -8.272804 -1.671705 0.574584
v -8.415404 -1.700778 0.596395
v -8.557979 -1.729854 0.618548
v -8.700512 -1.758928 0.640966
v -8.843038 -1.788004 0.663592
v -8.985546 -1.817080 0.686369
v -9.128029 -1.846154 0.709250
v -9.270519 -1.875230 0.732201
v -9.412993 -1.904304 0.755189
v -9.555476 -1.933380 0.778198
v -9.697961 -1.962457 0.801211
v -9.840430 -1.991530 0.824222
v -9.982913 -2.020607 0.847236
v -10.125396 -2.049683 0.870250
v -10.267867 -2.078757 0.893261
v -10.410350 -2.107833 0.916275
v -10.552819 -2.136906 0.939286
v -10.695304 -2.165983 0.962300
v -10.837786 -2.195059 0.985314
v -10.980255 -2.224133 1.008325
v -11.122740 -2.253209 1.031339
v -11.265209 -2.282283 1.054350
v -11.407693 -2.311359 1.077364
v -11.550176 -2.340435 1.100378
v -11.692647 -2.369509 1.123392
v -11.835124 -2.398585 1.146420
v -11.977598 -2.427661 1.169479
v -12.120047 -2.456735 1.192591
v -12.262488 -2.485811 1.215794
v -12.404888 -2.514885 1.239128
v -12.547263 -2.543962 1.262645
v -12.689584 -2.573038 1.286403
v -12.831827 -2.602113 1.310466
v -12.973999 -2.631189 1.334912
v -13.116057 -2.660263 1.359820
v -13.258010 -2.689341 1.385285
v -13.399819 -2.718418 1.411401
v -13.541456 -2.747493 1.438250
v -13.682932 -2.776571 1.465905
v -13.824222 -2.805649 1.494417
v -13.965305 -2.834725 1.523819
v -14.106204 -2.863804 1.554138
v -14.246888 -2.892880 1.585371
v -14.387389 -2.921959 1.617512
v -14.527703 -2.951039 1.650530
v -14.667823 -2.980116 1.684376
v -14.807787 -3.009197 1.718995
v -14.947587 -3.038274 1.754304
v -15.087272 -3.067355 1.790218
v -15.226844 -3.096436 1.826638
v -15.366313 -3.125514 1.863475
v -15.505721 -3.154595 1.900657
v -15.645072 -3.183676 1.938110
v -15.784361 -3.212754 1.975769
v -15.923632 -3.241836 2.013586
v -16.062868 -3.270915 2.051509
v -16.202097 -3.299996 2.089506
v -16.341322 -3.329077 2.127544
v -16.480528 -3.358157 2.165599
v -16.619740 -3.387237 2.203663
v -16.758947 -3.416316 2.241724
v -16.898163 -3.445398 2.279789
v -17.037376 -3.474478 2.317853
v -17.176584 -3.503557 2.355915
v -17.315800 -3.532639 2.393979
v -17.455015 -3.561720 2.432044
v -17.594221 -3.590799 2.470105
v -17.733437 -3.619880 2.508170
v -17.872639 -3.648959 2.546231
v -18.011858 -3.678040 2.584296
v -18.151073 -3.707122 2.622361
v -18.290276 -3.736200 2.660422
v -18.429491 -3.765281 2.698487
v -18.568697 -3.794360 2.736550
v -18.707911 -3.823442 2.774627
v -18.847116 -3.852524 2.812730
v -18.986290 -3.881602 2.850881
v -19.125448 -3.910684 2.889118
v -19.264568 -3.939765 2.927477
v -19.403616 -3.968844 2.966004
v -19.542604 -3.997926 3.004760
v -19.681480 -4.027005 3.043802
v -19.820251 -4.056087 3.083210
v -19.958878 -4.085169 3.123058
v -20.097311 -4.114249 3.163431
v -20.235556 -4.143332 3.204427
v -20.373554 -4.172413 3.246126
v -20.511305 -4.201497 3.288601
v -20.648781 -4.230580 3.331904
v -20.785959 -4.259662 3.376067
v -20.922857 -4.288747 3.421119
v -21.059458 -4.317833 3.467062
v -21.195753 -4.346916 3.513883
v -21.331774 -4.376002 3.561563
v -21.467520 -4.405087 3.610053
v -21.603020 -4.434173 3.659302
v -21.738298 -4.463261 3.709235
v -21.873363 -4.492345 3.759758
v -22.008274 -4.521434 3.810788
v -22.143034 -4.550519 3.862231
v -22.277695 -4.579607 3.914020
v -22.412266 -4.608696 3.966080
v -22.546755 -4.637783 4.018345
v -22.681202 -4.666871 4.070772
v -22.815611 -4.695960 4.123308
v -22.949989 -4.725046 4.175913
v -23.084360 -4.754135 4.228566
v -23.218716 -4.783222 4.281235
v -23.353077 -4.812310 4.333917
v -23.487442 -4.841399 4.386599
v -23.621792 -4.870485 4.439275
v -23.756155 -4.899574 4.491958
v -23.890507 -4.928660 4.544635
v -24.024872 -4.957749 4.597317
v -24.159233 -4.986838 4.649999
v -24.293585 -5.015924 4.702676
v -24.427948 -5.045013 4.755358
v -24.562313 -5.074102 4.808040
v -24.696663 -5.103188 4.860717
v -24.831024 -5.132277 4.913400
v -24.965380 -5.161364 4.966077
v -25.099741 -5.190452 5.018759
v -25.234106 -5.219541 5.071442
v -25.368448 -5.248627 5.124129
v -25.502796 -5.277716 5.176844
v -25.637112 -5.306802 5.229599
v -25.771406 -5.335891 5.282435
v -25.905649 -5.364980 5.335383
v -26.039804 -5.394067 5.388484
v -26.173882 -5.423156 5.441801
v -26.307833 -5.452246 5.495387
v -26.441616 -5.481333 5.549306
v -26.575230 -5.510423 5.603643
v -26.708599 -5.539510 5.658472
v -26.841713 -5.568601 5.713889
v -26.974529 -5.597692 5.769975
v -27.106998 -5.626782 5.826789
v -27.239119 -5.655874 5.884396
v -27.370846 -5.684964 5.942823
v -27.502207 -5.714058 6.002104
v -27.633173 -5.743152 6.062239
v -27.763741 -5.772243 6.123216
v -27.893953 -5.801339 6.185022
v -28.023798 -5.830434 6.247613
v -28.153305 -5.859529 6.310931
v -28.282518 -5.888625 6.374919
v -28.411459 -5.917721 6.439484
v -28.540178 -5.946818 6.504545
v -28.668716 -5.975915 6.570016
v -28.797091 -6.005011 6.635818
v -28.925354 -6.034110 6.701892
v -29.053509 -6.063205 6.768168
v -29.181606 -6.092304 6.834606
v -29.309652 -6.121402 6.901155
v -29.437653 -6.150497 6.967772
v -29.565653 -6.179597 7.034440
v -29.693634 -6.208696 7.101129
v -29.821598 -6.237792 7.167821
v -29.949570 -6.266889 7.234520
v -30.077541 -6.295986 7.301212
v -30.205524 -6.325085 7.367912
v -30.333502 -6.354184 7.434612
v -30.461468 -6.383280 7.501303
v -30.589445 -6.412378 7.568003
v -30.717413 -6.441475 7.634696
v -30.845388 -6.470573 7.701395
v -30.973373 -6.499673 7.768095
v -31.101339 -6.528769 7.834787
v -31.229313 -6.557867 7.901485
v -31.357296 -6.586966 7.968184
v -31.485264 -6.616063 8.034878
v -31.613239 -6.645161 8.101578
v -31.741203 -6.674257 8.168279
v -31.869165 -6.703356 8.235004
v -31.997105 -6.732455 8.301772
v -32.124992 -6.761551 8.368599
v -32.252831 -6.790649 8.435535
v -32.380569 -6.819746 8.502609
v -32.508213 -6.848845 8.569880
v -32.635704 -6.877945 8.637402
v -32.763000 -6.907042 8.705227
v -32.890083 -6.936142 8.773441
v -33.016891 -6.965242 8.842113
v -33.143364 -6.994340 8.911323
v -33.269489 -7.023442 8.981161
v -33.395191 -7.052542 9.051682
v -33.520470 -7.081645 9.122946
v -33.645283 -7.110748 9.194989
v -33.769619 -7.139851 9.267825
v -33.893486 -7.168955 9.341477
v -34.016865 -7.198058 9.415922
v -34.139793 -7.227166 9.491160
v -34.262276 -7.256272 9.567145
v -34.384338 -7.285378 9.643822
v -34.506031 -7.314486 9.721144
v -34.627399 -7.343596 9.799024
v -34.748463 -7.372702 9.877373
v -34.869308 -7.401812 9.956125
v -34.989956 -7.430920 10.035195
v -35.110458 -7.460031 10.114534
v -35.230843 -7.489141 10.194076
v -35.351120 -7.518248 10.273762
v -35.471344 -7.547359 10.353566
v -35.591515 -7.576468 10.433436
v -35.711670 -7.605579 10.513359
v -35.831814 -7.634690 10.593305
v -35.951935 -7.663797 10.673251
v -36.072071 -7.692908 10.753207
v -36.192207 -7.722019 10.833163
v -36.312332 -7.751128 10.913113
v -36.432461 -7.780238 10.993069
v -36.552593 -7.809347 11.073018
v -36.672726 -7.838457 11.152973
v -36.792858 -7.867568 11.232930
v -36.912987 -7.896677 11.312879
v -37.033119 -7.925787 11.392836
v -37.153248 -7.954896 11.472785
v -37.273373 -7.984005 11.552738
v -37.393513 -8.013117 11.632695
v -37.513638 -8.042225 11.712645
v -37.633774 -8.071338 11.792602
v -37.753906 -8.100449 11.872564
v -37.874012 -8.129556 11.952536
v -37.994102 -8.158668 12.032551
v -38.114143 -8.187776 12.112615
v -38.234119 -8.216887 12.192779
v -38.354008 -8.245998 12.273071
v -38.473755 -8.275106 12.353528
v -38.593334 -8.304217 12.434217
v -38.712704 -8.333327 12.515183
v -38.831821 -8.362440 12.596506
v -38.950626 -8.391553 12.678246
v -39.069046 -8.420664 12.760470
v -39.187054 -8.449778 12.843279
v -39.304592 -8.478893 12.926719
v -39.421608 -8.508006 13.010836
v -39.538094 -8.537122 13.095678
v -39.654018 -8.566237 13.181260
v -39.769390 -8.595356 13.267600
v -39.884201 -8.624475 13.354689
v -39.998455 -8.653592 13.442503
v -40.112194 -8.682713 13.531023
v -40.225445 -8.711832 13.620195
v -40.338242 -8.740953 13.709975
v -40.450653 -8.770077 13.800286
v -40.562710 -8.799196 13.891040
v -40.674503 -8.828321 13.982181
v -40.786060 -8.857445 14.073633
v -40.897423 -8.886568 14.165327
v -41.008652 -8.915691 14.257222
v -41.119759 -8.944816 14.349257
v -41.230793 -8.973939 14.441406
v -41.341774 -9.003064 14.533629
v -41.452709 -9.032186 14.625887
v -41.563637 -9.061311 14.718177
v -41.674557 -9.090434 14.810471
v -41.785477 -9.119558 14.902773
v -41.896404 -9.148685 14.995074
v -42.007313 -9.177807 15.087369
v -42.118240 -9.206932 15.179671
v -42.229156 -9.236056 15.271973
v -42.340073 -9.265179 15.364265
v -42.450996 -9.294305 15.456570
v -42.561913 -9.323428 15.548864
v -42.672836 -9.352553 15.641167
v -42.783760 -9.381679 15.733469
v -42.894665 -9.410801 15.825762
v -43.005592 -9.439926 15.918063
v -43.116501 -9.469049 16.010361
v -43.227421 -9.498172 16.102661
v -43.338333 -9.527297 16.194967
v -43.449226 -9.556419 16.287279
v -43.560112 -9.585546 16.379629
v -43.670944 -9.614671 16.472029
v -43.781696 -9.643794 16.564503
v -43.892349 -9.672920 16.657095
v -44.002850 -9.702043 16.749832
v -44.113171 -9.731169 16.842779
v -44.223259 -9.760294 16.935978
v -44.333057 -9.789419 17.029480
v -44.442513 -9.818547 17.123363
v -44.551552 -9.847673 17.217686
v -44.660110 -9.876801 17.312527
v -44.768139 -9.905930 17.407944
v -44.875595 -9.935061 17.503977
v -44.982437 -9.964190 17.600670
v -45.088657 -9.993321 17.698040
v -45.194233 -10.022453 17.796093
v -45.299171 -10.051586 17.894836
v -45.403488 -10.080720 17.994246
v -45.507217 -10.109857 18.094311
v -45.610374 -10.138994 18.194981
v -45.713001 -10.168129 18.296198
v -45.815189 -10.197268 18.397919
v -45.916977 -10.226403 18.500051
v -46.018444 -10.255544 18.602547
v -46.119633 -10.284683 18.705336
v -46.220612 -10.313823 18.808348
v -46.321415 -10.342962 18.911554
v -46.422100 -10.372105 19.014900
v -46.522663 -10.401240 19.118336
v -46.623188 -10.430384 19.221853
v -46.723656 -10.459521 19.325405
v -46.824108 -10.488662 19.428988
v -46.924564 -10.517804 19.532585
v -47.025005 -10.546944 19.636171
v -47.125439 -10.576083 19.739769
v -47.225883 -10.605224 19.843355
v -47.326332 -10.634365 19.946953
v -47.426769 -10.663505 20.050549
v -47.527206 -10.692644 20.154135
v -47.627659 -10.721787 20.257732
v -47.728096 -10.750927 20.361328
v -47.828529 -10.780064 20.464916
v -47.928978 -10.809207 20.568510
v -48.029411 -10.838346 20.672098
v -48.129864 -10.867488 20.775696
v -48.230305 -10.896627 20.879292
v -48.330742 -10.925767 20.982880
v -48.431183 -10.954908 21.086481
v -48.531601 -10.984047 21.190081
v -48.632015 -11.013190 21.293718
v -48.732361 -11.042330 21.397396
v -48.832619 -11.071468 21.501133
v -48.932781 -11.100611 21.604977
v -49.032791 -11.129752 21.708952
v -49.132587 -11.158892 21.813091
v -49.232147 -11.188034 21.917463
v -49.331383 -11.217175 22.022093
v -49.430260 -11.246319 22.127064
v -49.528675 -11.275464 22.232422
v -49.626568 -11.304607 22.338226
v -49.723873 -11.333752 22.444550
v -49.820545 -11.362897 22.551411
v -49.916553 -11.392045 22.658873
v -50.011860 -11.421192 22.766933
v -50.106464 -11.450341 22.875599
v -50.200367 -11.479493 22.984896
v -50.293564 -11.508645 23.094793
v -50.386101 -11.537798 23.205263
v -50.478004 -11.566952 23.316290
v -50.569324 -11.596104 23.427813
v -50.660145 -11.625262 23.539793
v -50.750511 -11.654419 23.652159
v -50.840488 -11.683572 23.764837
v -50.930183 -11.712731 23.877798
v -51.019604 -11.741884 23.990959
v -51.108860 -11.771045 24.104300
v -51.197960 -11.800205 24.217779
v -51.286934 -11.829360 24.331333
v -51.375839 -11.858517 24.444960
v -51.464714 -11.887678 24.558643
v -51.553543 -11.916835 24.672329
v -51.642372 -11.945995 24.786039
v -51.731182 -11.975150 24.899736
v -51.820007 -12.004311 25.013447
v -51.908829 -12.033468 25.127157
v -51.997646 -12.062626 25.240860
v -52.086468 -12.091785 25.354568
v -52.175293 -12.120943 25.468269
v -52.264107 -12.150101 25.581980
v -52.352932 -12.179260 25.695690
v -52.441753 -12.208418 25.809395
v -52.530575 -12.237577 25.923105
v -52.619400 -12.266737 26.036816
v -52.708214 -12.295894 26.150515
v -52.797039 -12.325053 26.264227
v -52.885853 -12.354210 26.377924
v -52.974678 -12.383369 26.491644
v -53.063477 -12.412527 26.605358
v -53.152252 -12.441684 26.719090
v -53.240978 -12.470843 26.832867
v -53.329620 -12.500001 26.946688
v -53.418156 -12.529161 27.060606
v -53.506523 -12.558320 27.174631
v -53.594681 -12.587479 27.288792
v -53.682568 -12.616639 27.403156
v -53.770142 -12.645801 27.517742
v -53.857288 -12.674959 27.632601
v -53.943974 -12.704122 27.747807
v -54.030090 -12.733282 27.863388
v -54.115582 -12.762445 27.979422
v -54.200409 -12.791613 28.095930
v -54.284485 -12.820776 28.212934
v -54.367821 -12.849945 28.330475
v -54.450378 -12.879110 28.448540
v -54.532181 -12.908281 28.567158
v -54.613224 -12.937452 28.686296
v -54.693527 -12.966621 28.805941
v -54.773151 -12.995796 28.926073
v -54.852135 -13.024971 29.046654
v -54.930542 -13.054144 29.167618
v -55.008453 -13.083319 29.288937
v -55.085957 -13.112494 29.410536
v -55.163120 -13.141669 29.532381
v -55.240021 -13.170850 29.654423
v -55.316689 -13.200025 29.776608
v -55.393188 -13.229203 29.898916
v -55.469551 -13.258377 30.021297
v -55.545841 -13.287556 30.143753
v -55.622082 -13.316734 30.266251
v -55.698296 -13.345913 30.388756
v -55.774479 -13.375090 30.511280
v -55.850670 -13.404269 30.633810
v -55.926853 -13.433446 30.756327
v -56.003044 -13.462626 30.878859
v -56.079224 -13.491800 31.001375
v -56.155415 -13.520981 31.123905
v -56.231602 -13.550159 31.246433
v -56.307781 -13.579334 31.368952
v -56.383972 -13.608514 31.491482
v -56.460152 -13.637690 31.614000
v -56.536343 -13.666869 31.736530
v -56.612530 -13.696047 31.859056
v -56.688721 -13.725225 31.981581
v -56.764900 -13.754402 32.104107
v -56.841099 -13.783583 32.226639
v -56.917271 -13.812757 32.349155
v -56.993443 -13.841935 32.471691
v -57.069588 -13.871114 32.594234
v -57.145687 -13.900293 32.716816
v -57.221703 -13.929472 32.839439
v -57.297585 -13.958647 32.962116
v -57.373318 -13.987827 33.084900
v -57.448826 -14.017006 33.207790
v -57.524052 -14.046185 33.330845
v -57.598942 -14.075366 33.454090
v -57.673409 -14.104546 33.577557
v -57.747379 -14.133728 33.701302
v -57.820755 -14.162910 33.825375
v -57.893467 -14.192092 33.949799
v -57.965469 -14.221279 34.074635
v -58.036678 -14.250461 34.199883
v -58.107105 -14.279650 34.325581
v -58.176704 -14.308839 34.451729
v -58.245480 -14.338026 34.578320
v -58.313446 -14.367218 34.705368
v -58.380627 -14.396409 34.832836
v -58.447060 -14.425602 34.960724
v -58.512817 -14.454799 35.088993
v -58.577942 -14.483992 35.217590
v -58.642532 -14.513186 35.346489
v -58.706676 -14.542385 35.475643
v -58.770451 -14.571581 35.604988
v -58.833912 -14.600779 35.734509
v -58.897137 -14.629976 35.864151
v -58.960171 -14.659174 35.993908
v -59.023075 -14.688374 36.123737
v -59.085880 -14.717571 36.253613
v -59.148628 -14.746772 36.383530
v -59.211327 -14.775969 36.513458
v -59.274021 -14.805168 36.643406
v -59.336704 -14.834367 36.773361
v -59.399391 -14.863565 36.903301
v -59.462070 -14.892765 37.033253
v -59.524761 -14.921966 37.163204
v -59.587440 -14.951162 37.293140
v -59.650124 -14.980362 37.423092
v -59.712803 -15.009559 37.553036
v -59.775494 -15.038759 37.682983
v -59.838177 -15.067958 37.812935
v -59.900848 -15.097154 37.942879
v -59.963539 -15.126354 38.072830
v -60.026218 -15.155552 38.202770
v -60.088905 -15.184752 38.332718
v -60.151588 -15.213951 38.462666
v -60.214264 -15.243147 38.592609
v -60.276936 -15.272347 38.722572
v -60.339584 -15.301546 38.852531
v -60.402172 -15.330744 38.982517
v -60.464691 -15.359945 39.112541
v -60.527084 -15.389144 39.242603
v -60.589310 -15.418344 39.372746
v -60.651314 -15.447545 39.502983
v -60.713024 -15.476743 39.633327
v -60.774384 -15.505943 39.763828
v -60.835320 -15.535146 39.894501
v -60.895729 -15.564348 40.025406
v -60.955540 -15.593554 40.156559
v -61.014652 -15.622755 40.287991
v -61.073017 -15.651962 40.419746
v -61.130566 -15.681167 40.551830
v -61.187286 -15.710376 40.684277
v -61.243153 -15.739589 40.817085
v -61.298126 -15.768795 40.950237
v -61.352261 -15.798010 41.083767
v -61.405560 -15.827224 41.217640
v -61.458069 -15.856438 41.351837
v -61.509834 -15.885652 41.486340
v -61.560951 -15.914866 41.621109
v -61.611504 -15.944087 41.756142
v -61.661560 -15.973307 41.891369
v -61.711205 -16.002523 42.026752
v -61.760521 -16.031742 42.162289
v -61.809586 -16.060963 42.297920
v -61.858452 -16.090183 42.433651
v -61.907158 -16.119404 42.569447
v -61.955753 -16.148621 42.705265
v -62.004295 -16.177845 42.841137
v -62.052792 -16.207066 42.977013
v -62.101265 -16.236286 43.112888
v -62.149734 -16.265507 43.248783
v -62.198200 -16.294725 43.384659
v -62.246662 -16.323948 43.520561
v -62.295132 -16.353170 43.656452
v -62.343594 -16.382389 43.792336
v -62.392067 -16.411612 43.928226
v -62.440533 -16.440830 44.064106
v -62.488991 -16.470051 44.199997
v -62.537464 -16.499273 44.335896
v -62.585930 -16.528494 44.471779
v -62.634407 -16.557716 44.607670
v -62.682861 -16.586937 44.743565
v -62.731323 -16.616156 44.879444
v -62.779789 -16.645376 45.015335
v -62.828251 -16.674595 45.151218
v -62.876717 -16.703819 45.287117
v -62.925140 -16.733040 45.423019
v -62.973526 -16.762260 45.558929
v -63.021816 -16.791477 45.694870
v -63.070000 -16.820700 45.830830
v -63.118015 -16.849922 45.966869
v -63.165806 -16.879147 46.102959
v -63.213303 -16.908367 46.239128
v -63.260445 -16.937590 46.375408
v -63.307152 -16.966814 46.511833
v -63.353321 -16.996037 46.648396
v -63.398888 -17.025265 46.785152
v -63.443726 -17.054485 46.922112
v -63.487804 -17.083717 47.059311
v -63.531059 -17.112949 47.196762
v -63.573421 -17.142176 47.334454
v -63.614895 -17.171408 47.472427
v -63.655468 -17.200638 47.610649
v -63.695156 -17.229874 47.749157
v -63.733974 -17.259109 47.887920
v -63.771973 -17.288347 48.026917
v -63.809193 -17.317585 48.166161
v -63.845715 -17.346827 48.305607
v -63.881634 -17.376064 48.445210
v -63.917049 -17.405308 48.584991
v -63.952007 -17.434546 48.724888
v -63.986637 -17.463791 48.864902
v -64.020973 -17.493032 49.004982
v -64.055122 -17.522278 49.145142
v -64.089081 -17.551519 49.285343
v -64.122925 -17.580761 49.425571
v -64.156700 -17.610006 49.565830
v -64.190422 -17.639250 49.706116
v -64.224136 -17.668493 49.846386
v -64.257828 -17.697737 49.986671
v -64.291519 -17.726982 50.126961
v -64.325218 -17.756222 50.267227
v -64.358910 -17.785465 50.407516
v -64.392616 -17.814711 50.547794
v -64.426315 -17.843956 50.688084
v -64.459999 -17.873199 50.828365
v -64.493698 -17.902441 50.968647
v -64.527397 -17.931686 51.108929
v -64.561104 -17.960928 51.249210
v -64.594780 -17.990170 51.389488
v -64.628479 -18.019417 51.529766
v -64.662170 -18.048656 51.670044
v -64.695869 -18.077902 51.810329
v -64.729576 -18.107147 51.950619
v -64.763260 -18.136391 52.090900
v -64.796921 -18.165634 52.231190
v -64.830544 -18.194878 52.371483
v -64.864067 -18.224119 52.511791
v -64.897491 -18.253365 52.652134
v -64.930748 -18.282610 52.792496
v -64.963776 -18.311855 52.932896
v -64.996521 -18.341099 53.073341
v -65.028900 -18.370344 53.213879
v -65.060852 -18.399591 53.354485
v -65.092262 -18.428837 53.495186
v -65.123055 -18.458086 53.636002
v -65.153130 -18.487335 53.776955
v -65.182426 -18.516584 53.918034
v -65.210861 -18.545837 54.059299
v -65.238426 -18.575090 54.200703
v -65.265060 -18.604347 54.342300
v -65.290764 -18.633602 54.484055
v -65.315559 -18.662857 54.625969
v -65.339462 -18.692116 54.768066
v -65.362518 -18.721376 54.910294
v -65.384766 -18.750639 55.052704
v -65.406288 -18.779902 55.195236
v -65.427185 -18.809164 55.337872
v -65.447533 -18.838428 55.480614
v -65.467430 -18.867693 55.623440
v -65.486969 -18.896959 55.766338
v -65.506210 -18.926228 55.909283
v -65.525208 -18.955490 56.052269
v -65.544044 -18.984756 56.195301
v -65.562752 -19.014023 56.338341
v -65.581383 -19.043291 56.481407
v -65.599976 -19.072559 56.624477
v -65.618515 -19.101824 56.767540
v -65.637054 -19.131092 56.910625
v -65.655602 -19.160358 57.053703
v -65.674149 -19.189627 57.196774
v -65.692680 -19.218893 57.339859
v -65.711227 -19.248163 57.482937
v -65.729774 -19.277428 57.626011
v -65.748306 -19.306694 57.769089
v -65.766846 -19.335960 57.912159
v -65.785393 -19.365227 58.055241
v -65.803940 -19.394497 58.198326
v -65.822479 -19.423761 58.341389
v -65.841019 -19.453030 58.484470
v -65.859558 -19.482296 58.627541
v -65.878105 -19.511564 58.770630
v -65.896645 -19.540833 58.913704
v -65.915184 -19.570097 59.056778
v -65.933693 -19.599367 59.199863
v -65.952164 -19.628633 59.342945
v -65.970551 -19.657898 59.486023
v -65.988838 -19.687168 59.629131
v -66.006943 -19.716434 59.772228
v -66.024841 -19.745701 59.915359
v -66.042465 -19.774973 60.058510
v -66.059715 -19.804239 60.201679
v -66.076546 -19.833511 60.344898
v -66.092842 -19.862780 60.488132
v -66.108528 -19.892054 60.631432
v -66.123489 -19.921326 60.774784
v -66.137657 -19.950596 60.918175
v -66.150978 -19.979876 61.061668
v -66.163406 -20.009155 61.205212
v -66.174889 -20.038429 61.348816
v -66.185455 -20.067709 61.492500
v -66.195076 -20.096989 61.636242
v -66.203796 -20.126270 61.780064
v -66.211639 -20.155556 61.923962
v -66.218674 -20.184839 62.067902
v -66.224953 -20.214127 62.211914
v -66.230598 -20.243412 62.355965
v -66.235664 -20.272701 62.500072
v -66.240265 -20.301991 62.644207
v -66.244484 -20.331278 62.788357
v -66.248398 -20.360569 62.932549
v -66.252060 -20.389858 63.076756
v -66.255554 -20.419147 63.220970
v -66.258926 -20.448441 63.365200
v -66.262192 -20.477728 63.509418
v -66.265419 -20.507023 63.653675
v -66.268600 -20.536312 63.797924
v -66.271774 -20.565601 63.942150
v -66.274948 -20.594894 64.086395
v -66.278122 -20.624184 64.230637
v -66.281311 -20.653477 64.374870
v -66.284470 -20.682766 64.519127
v -66.287666 -20.712057 64.663353
v -66.290833 -20.741348 64.807594
v -66.293999 -20.770639 64.951859
v -66.297188 -20.799931 65.096085
v -66.300346 -20.829218 65.240326
v -66.303520 -20.858507 65.384560
v -66.306709 -20.887802 65.528816
v -66.309875 -20.917095 65.673065
v -66.313049 -20.946383 65.817291
v -66.316231 -20.975674 65.961540
v -66.319397 -21.004963 66.105766
v -66.322548 -21.034256 66.250023
v -66.325653 -21.063547 66.394257
v -66.328697 -21.092838 66.538490
v -66.331612 -21.122128 66.682732
v -66.334389 -21.151423 66.826958
v -66.336952 -21.180714 66.971184
v -66.339233 -21.210007 67.115402
v -66.341171 -21.239296 67.259590
v -66.342682 -21.268591 67.403793
v -66.343674 -21.297886 67.547974
v -66.344063 -21.327179 67.692123
v -66.343735 -21.356478 67.836258
v -66.342628 -21.385788 67.980415
v -66.340668 -21.415123 68.124680
v -66.337784 -21.444492 68.269096
v -66.333946 -21.473930 68.413780
v -66.329147 -21.503460 68.558884
v -66.323341 -21.533113 68.704559
v -66.316574 -21.562931 68.851021
v -66.308823 -21.592957 68.998451
v -66.300140 -21.623238 69.147102
v -66.290581 -21.653833 69.297272
v -66.280197 -21.684799 69.449234
v -66.269066 -21.716200 69.603294
v -66.257240 -21.748112 69.759857
v -66.244781 -21.780602 69.919235
v -66.231728 -21.813759 70.081863
v -66.218109 -21.847664 70.248154
v -66.203949 -21.882401 70.418541
v -66.189255 -21.918079 70.593521
v -66.174042 -21.954803 70.773613
v -66.158302 -21.992666 70.959305
v -66.141998 -22.031794 71.151184
v -66.125114 -22.072292 71.349800
v -66.107597 -22.114298 71.555794
v -66.089394 -22.157946 71.769852
v -66.070389 -22.203478 71.993149
v -66.050438 -22.251301 72.227676
v -66.029320 -22.301941 72.476006
v -66.006729 -22.356098 72.741600
v -65.982330 -22.414600 73.028526
v -65.955704 -22.478432 73.341553
v -65.926384 -22.548729 73.686302
v -65.893829 -22.626770 74.069031
v -65.857460 -22.713970 74.496666
v -65.816597 -22.811924 74.977051
v -65.770546 -22.922333 75.518501
l 1 2
l 2 3
l 3 4
l 4 5
l 5 6
l 6 7
l 7 8
l 8 9
l 9 10
l 10 11
l 11 12
l 12 13
l 13 14
l 14 15
l 15 16
l 16 17
l 17 18
l 18 19
l 19 20
l 20 21
l 21 22
l 22 23
l 23 24
l 24 25
l 25 26
l 26 27
l 27 28
l 28 29
l 29 30
l 30 31
l 31 32
l 32 33
l 33 34
l 34 35
l 35 36
l 36 37
l 37 38
l 38 39
l 39 40
l 40 41
l 41 42
l 42 43
l 43 44
l 44 45
l 45 46
l 46 47
l 47 48
l 48 49
l 49 50
l 50 51
l 51 52
l 52 53
l 53 54
l 54 55
l 55 56
l 56 57
l 57 58
l 58 59
l 59 60
l 60 61
l 61 62
l 62 63
l 63 64
l 64 65
l 65 66
l 66 67
l 67 68
l 68 69
l 69 70
l 70 71
l 71 72
l 72 73
l 73 74
l 74 75
l 75 76
l 76 77
l 77 78
l 78 79
l 79 80
l 80 81
l 81 82
l 82 83
l 83 84
l 84 85
l 85 86
l 86 87
l 87 88
l 88 89
l 89 90
l 90 91
l 91 92
l 92 93
l 93 94
l 94 95
l 95 96
l 96 97
l 97 98
l 98 99
l 99 100
l 100 101
l 101 102
l 102 103
l 103 104
l 104 105
l 105 106
l 106 107
l 107 108
l 108 109
l 109 110
l 110 111
l 111 112
l 112 113
l 113 114
l 114 115
l 115 116
l 116 117
l 117 118
l 118 119
l 119 120
l 120 121
l 121 122
l 122 123
l 123 124
l 124 125
l 125 126
l 126 127
l 127 128
l 128 129
l 129 130
l 130 131
l 131 132
l 132 133
l 133 134
l 134 135
l 135 136
l 136 137
l 137 138
l 138 139
l 139 140
l 140 141
l 141 142
l 142 143
l 143 144
l 144 145
l 145 146
l 146 147
l 147 148
l 148 149
l 149 150
l 150 151
l 151 152
l 152 153
l 153 154
l 154 155
l 155 156
l 156 157
l 157 158
l 158 159
l 159 160
l 160 161
l 161 162
l 162 163
l 163 164
l 164 165
l 165 166
l 166 167
l 167 168
l 168 169
l 169 170
l 170 171
l 171 172
l 172 173
l 173 174
l 174 175
l 175 176
l 176 177
l 177 178
l 178 179
l 179 180
l 180 181
l 181 182
l 182 183
l 183 184
l 184 185
l 185 186
l 186 187
l 187 188
l 188 189
l 189 190
l 190 191
l 191 192
l 192 193
l 193 194
l 194 195
l 195 196
l 196 197
l 197 198
l 198 199
l 199 200
l 200 201
l 201 202
l 202 203
l 203 204
l 204 205
l 205 206
l 206 207
l 207 208
l 208 209
l 209 210
l 210 211
l 211 212
l 212 213
l 213 214
l 214 215
l 215 216
l 216 217
l 217 218
l 218 219
l 219 220
l 220 221
l 221 222
l 222 223
l 223 224
l 224 225
l 225 226
l 226 227
l 227 228
l 228 229
l 229 230
l 230 231
l 231 232
l 232 233
l 233 234
l 234 235
l 235 236
l 236 237
l 237 238
l 238 239
l 239 240
l 240 241
l 241 242
l 242 243
l 243 244
l 244 245
l 245 246
l 246 247
l 247 248
l 248 249
l 249 250
l 250 251
l 251 252
l 252 253
l 253 254
l 254 255
l 255 256
l 256 257
l 257 258
l 258 259
l 259 260
l 260 261
l 261 262
l 262 263
l 263 264
l 264 265
l 265 266
l 266 267
l 267 268
l 268 269
l 269 270
l 270 271
l 271 272
l 272 273
l 273 274
l 274 275
l 275 276
l 276 277
l 277 278
l 278 279
l 279 280
l 280 281
l 281 282
l 282 283
l 283 284
l 284 285
l 285 286
l 286 287
l 287 288
l 288 289
l 289 290
l 290 291
l 291 292
l 292 293
l 293 294
l 294 295
l 295 296
l 296 297
l 297 298
l 298 299
l 299 300
l 300 301
l 301 302
l 302 303
l 303 304
l 304 305
l 305 306
l 306 307
l 307 308
l 308 309
l 309 310
l 310 311
l 311 312
l 312 313
l 313 314
l 314 315
l 315 316
l 316 317
l 317 318
l 318 319
l 319 320
l 320 321
l 321 322
l 322 323
l 323 324
l 324 325
l 325 326
l 326 327
l 327 328
l 328 329
l 329 330
l 330 331
l 331 332
l 332 333
l 333 334
l 334 335
l 335 336
l 336 337
l 337 338
l 338 339
l 339 340
l 340 341
l 341 342
l 342 343
l 343 344
l 344 345
l 345 346
l 346 347
l 347 348
l 348 349
l 349 350
l 350 351
l 351 352
l 352 353
l 353 354
l 354 355
l 355 356
l 356 357
l 357 358
l 358 359
l 359 360
l 360 361
l 361 362
l 362 363
l 363 364
l 364 365
l 365 366
l 366 367
l 367 368
l 368 369
l 369 370
l 370 371
l 371 372
l 372 373
l 373 374
l 374 375
l 375 376
l 376 377
l 377 378
l 378 379
l 379 380
l 380 381
l 381 382
l 382 383
l 383 384
l 384 385
l 385 386
l 386 387
l 387 388
l 388 389
l 389 390
l 390 391
l 391 392
l 392 393
l 393 394
l 394 395
l 395 396
l 396 397
l 397 398
l 398 399
l 399 400
l 400 401
l 401 402
l 402 403
l 403 404
l 404 405
l 405 406
l 406 407
l 407 408
l 408 409
l 409 410
l 410 411
l 411 412
l 412 413
l 413 414
l 414 415
l 415 416
l 416 417
l 417 418
l 418 419
l 419 420
l 420 421
l 421 422
l 422 423
l 423 424
l 424 425
l 425 426
l 426 427
l 427 428
l 428 429
l 429 430
l 430 431
l 431 432
l 432 433
l 433 434
l 434 435
l 435 436
l 436 437
l 437 438
l 438 439
l 439 440
l 440 441
l 441 442
l 442 443
l 443 444
l 444 445
l 445 446
l 446 447
l 447 448
l 448 449
l 449 450
l 450 451
l 451 452
l 452 453
l 453 454
l 454 455
l 455 456
l 456 457
l 457 458
l 458 459
l 459 460
l 460 461
l 461 462
l 462 463
l 463 464
l 464 465
l 465 466
l 466 467
l 467 468
l 468 469
l 469 470
l 470 471
l 471 472
l 472 473
l 473 474
l 474 475
l 475 476
l 476 477
l 477 478
l 478 479
l 479 480
l 480 481
l 481 482
l 482 483
l 483 484
l 484 485
l 485 486
l 486 487
l 487 488
l 488 489
l 489 490
l 490 491
l 491 492
l 492 493
l 493 494
l 494 495
l 495 496
l 496 497
l 497 498
l 498 499
l 499 500
l 500 501
l 501 502
l 502 503
l 503 504
l 504 505
l 505 506
l 506 507
l 507 508
l 508 509
l 509 510
l 510 511
l 511 512
l 512 513
l 513 514
l 514 515
l 515 516
l 516 517
l 517 518
l 518 519
l 519 520
l 520 521
l 521 522
l 522 523
l 523 524
l 524 525
l 525 526
l 526 527
l 527 528
l 528 529
l 529 530
l 530 531
l 531 532
l 532 533
l 533 534
l 534 535
l 535 536
l 536 537
l 537 538
l 538 539
l 539 540
l 540 541
l 541 542
l 542 543
l 543 544
l 544 545
l 545 546
l 546 547
l 547 548
l 548 549
l 549 550
l 550 551
l 551 552
l 552 553
l 553 554
l 554 555
l 555 556
l 556 557
l 557 558
l 558 559
l 559 560
l 560 561
l 561 562
l 562 563
l 563 564
l 564 565
l 565 566
l 566 567
l 567 568
l 568 569
l 569 570
l 570 571
l 571 572
l 572 573
l 573 574
l 574 575
l 575 576
l 576 577
l 577 578
l 578 579
l 579 580
l 580 581
l 581 582
l 582 583
l 583 584
l 584 585
l 585 586
l 586 587
l 587 588
l 588 589
l 589 590
l 590 591
l 591 592
l 592 593
l 593 594
l 594 595
l 595 596
l 596 597
l 597 598
l 598 599
l 599 600
l 600 601
l 601 602
l 602 603
l 603 604
l 604 605
l 605 606
l 606 607
l 607 608
l 608 609
l 609 610
l 610 611
l 611 612
l 612 613
l 613 614
l 614 615
l 615 616
l 616 617
l 617 618
l 618 619
l 619 620
l 620 621
l 621 622
l 622 623
l 623 624
l 624 625
l 625 626
l 626 627
l 627 628
l 628 629
l 629 630
l 630 631
l 631 632
l 632 633
l 633 634
l 634 635
l 635 636
l 636 637
l 637 638
l 638 639
l 639 640
l 640 641
l 641 642
l 642 643
l 643 644
l 644 645
l 645 646
l 646 647
l 647 648
l 648 649
l 649 650
l 650 651
l 651 652
l 652 653
l 653 654
l 654 655
l 655 656
l 656 657
l 657 658
l 658 659
l 659 660
l 660 661
l 661 662
l 662 663
l 663 664
l 664 665
l 665 666
l 666 667
l 667 668
l 668 669
l 669 670
l 670 671
l 671 672
l 672 673
l 673 674
l 674 675
l 675 676
l 676 677
l 677 678
l 678 679
l 679 680
l 680 681
l 681 682
l 682 683
l 683 684
l 684 685
l 685 686
l 686 687
l 687 688
l 688 689
l 689 690
l 690 691
l 691 692
l 692 693
l 693 694
l 694 695
l 695 696
l 696 697
l 697 698
l 698 699
l 699 700
l 700 701
l 701 702
l 702 703
l 703 704
l 704 705
l 705 706
l 706 707
l 707 708
l 708 709
l 709 710
l 710 711
l 711 712
l 712 713
l 713 714
l 714 715
l 715 716
l 716 717
l 717 718
l 718 719
l 719 720
l 720 721
l 721 722
l 722 723
l 723 724
l 724 725
l 725 726
l 726 727
l 727 728
l 728 729
l 729 730
l 730 731
l 731 732
l 732 733
l 733 734
l 734 735
l 735 736
l 736 737
l 737 738
l 738 739
l 739 740
l 740 741
l 741 742
l 742 743
l 743 744
l 744 745
l 745 746
l 746 747
l 747 748
l 748 749
l 749 750
l 750 751
l 751 752
l 752 753
l 753 754
l 754 755
l 755 756
l 756 757
l 757 758
l 758 759
l 759 760
l 760 761
l 761 762
l 762 763
l 763 764
l 764 765
l 765 766
l 766 767
l 767 768
l 768 769
l 769 770
l 770 771
l 771 772
l 772 773
l 773 774
l 774 775
l 775 776
l 776 777
l 777 778
l 778 779
l 779 780
l 780 781
l 781 782
l 782 783
l 783 784
l 784 785
l 785 786
l 786 787
l 787 788
l 788 789
l 789 790
l 790 791
l 791 792
l 792 793
l 793 794
l 794 795
l 795 796
l 796 797
l 797 798
l 798 799
l 799 800
l 800 801
l 801 802
l 802 803
l 803 804
l 804 805
l 805 806
l 806 807
l 807 808
l 808 809
l 809 810
l 810 811
l 811 812
l 812 813
l 813 814
l 814 815
l 815 816
l 816 817
l 817 818
l 818 819
l 819 820
l 820 821
l 821 822
l 822 823
l 823 824
l 824 825
l 825 826
l 826 827
l 827 828
l 828 829
l 829 830
l 830 831
l 831 832
l 832 833
l 833 834
l 834 835
l 835 836
l 836 837
l 837 838
l 838 839
l 839 840
l 840 841
l 841 842
l 842 843
l 843 844
l 844 845
l 845 846
l 846 847
l 847 848
l 848 849
l 849 850
l 850 851
l 851 852
l 852 853
l 853 854
l 854 855
l 855 856
l 856 857
l 857 858
l 858 859
l 859 860
l 860 861
l 861 862
l 862 863
l 863 864
l 864 865
l 865 866
l 866 867
l 867 868
l 868 869
l 869 870
l 870 871
l 871 872
l 872 873
l 873 874
l 874 875
l 875 876
l 876 877
l 877 878
l 878 879
l 879 880
l 880 881
l 881 882
l 882 883
l 883 884
l 884 885
l 885 886
l 886 887
l 887 888
l 888 889
l 889 890
l 890 891
l 891 892
l 892 893
l 893 894
l 894 895
l 895 896
l 896 897
l 897 898
l 898 899
l 899 900
l 900 901
l 901 902
l 902 903
l 903 904
l 904 905
l 905 906
l 906 907
l 907 908
l 908 909
l 909 910
l 910 911
l 911 912
l 912 913
l 913 914
l 914 915
l 915 916
l 916 917
l 917 918
l 918 919
l 919 920
l 920 921
l 921 922
l 922 923
l 923 924
l 924 925
l 925 926
l 926 927
l 927 928
l 928 929
l 929 930
l 930 931
l 931 932
l 932 933
l 933 934
l 934 935
l 935 936
l 936 937
l 937 938
l 938 939
l 939 940
l 940 941
l 941 942
l 942 943
l 943 944
l 944 945
l 945 946
l 946 947
l 947 948
l 948 949
l 949 950
l 950 951
l 951 952
l 952 953
l 953 954
l 954 955
l 955 956
l 956 957
l 957 958
l 958 959
l 959 960
l 960 961
l 961 962
l 962 963
l 963 964
l 964 965
l 965 966
l 966 967
l 967 968
l 968 969
l 969 970
l 970 971
l 971 972
l 972 973
l 973 974
l 974 975
l 975 976
l 976 977
l 977 978
l 978 979
l 979 980
l 980 981
l 981 982
l 982 983
l 983 984
l 984 985
l 985 986
l 986 987
l 987 988
l 988 989
l 989 990
l 990 991
l 991 992
l 992 993
l 993 994
l 994 995
l 995 996
l 996 997
l 997 998
l 998 999
l 999 1000
l 1000 1001
l 1001 1002
l 1002 1003
l 1003 1004
l 1004 1005
l 1005 1006
l 1006 1007
l 1007 1008
l 1008 1009
l 1009 1010
l 1010 1011
l 1011 1012
l 1012 1013
l 1013 1014
l 1014 1015
l 1015 1016
l 1016 1017
l 1017 1018
l 1018 1019
l 1019 1020
l 1020 1021
l 1021 1022
l 1022 1023
l 1023 1024
l 1024 1025
l 1025 1026
l 1026 1027
l 1027 1028
l 1028 1029
l 1029 1030
l 1030 1031
l 1031 1032
l 1032 1033
l 1033 1034
l 1034 1035
l 1035 1036
l 1036 1037
l 1037 1038
l 1038 1039
l 1039 1040
l 1040 1041
l 1041 1042
l 1042 1043
l 1043 1044
l 1044 1045
l 1045 1046
l 1046 1047
l 1047 1048
l 1048 1049
l 1049 1050
l 1050 1051
l 1051 1052
l 1052 1053
l 1053 1054
l 1054 1055
l 1055 1056
l 1056 1057
l 1057 1058
l 1058 1059
l 1059 1060
l 1060 1061
l 1061 1062
l 1062 1063
l 1063 1064
l 1064 1065
l 1065 1066
l 1066 1067
l 1067 1068
l 1068 1069
l 1069 1070
l 1070 1071
l 1071 1072
l 1072 1073
l 1073 1074
l 1074 1075
l 1075 1076
l 1076 1077
l 1077 1078
l 1078 1079
l 1079 1080
l 1080 1081
l 1081 1082
l 1082 1083
l 1083 1084
l 1084 1085
l 1085 1086
l 1086 1087
l 1087 1088
l 1088 1089
l 1089 1090
l 1090 1091
l 1091 1092
l 1092 1093
l 1093 1094
l 1094 1095
l 1095 1096
l 1096 1097
l 1097 1098
l 1098 1099
l 1099 1100
l 1100 1101
l 1101 1102
l 1102 1103
l 1103 1104
l 1104 1105
l 1105 1106
l 1106 1107
l 1107 1108
l 1108 1109
l 1109 1110
l 1110 1111
l 1111 1112
l 1112 1113
l 1113 1114
l 1114 1115
l 1115 1116
l 1116 1117
l 1117 1118
l 1118 1119
l 1119 1120
l 1120 1121
l 1121 1122
l 1122 1123
l 1123 1124
l 1124 1125
l 1125 1126
l 1126 1127
l 1127 1128
l 1128 1129
l 1129 1130
l 1130 1131
l 1131 1132
l 1132 1133
l 1133 1134
l 1134 1135
l 1135 1136
l 1136 1137
l 1137 1138
l 1138 1139
l 1139 1140
l 1140 1141
l 1141 1142
l 1142 1143
l 1143 1144
l 1144 1145
l 1145 1146
l 1146 1147
l 1147 1148
l 1148 1149
l 1149 1150
l 1150 1151
l 1151 1152
l 1152 1153
l 1153 1154
l 1154 1155
l 1155 1156
l 1156 1157
l 1157 1158
l 1158 1159
l 1159 1160
l 1160 1161
l 1161 1162
l 1162 1163
l 1163 1164
l 1164 1165
l 1165 1166
l 1166 1167
l 1167 1168
l 1168 1169
l 1169 1170
l 1170 1171
l 1171 1172
l 1172 1173
l 1173 1174
l 1174 1175
l 1175 1176
l 1176 1177
l 1177 1178
l 1178 1179
l 1179 1180
l 1180 1181
l 1181 1182
l 1182 1183
l 1183 1184
l 1184 1185
l 1185 1186
l 1186 1187
l 1187 1188
l 1188 1189
l 1189 1190
l 1190 1191
l 1191 1192
l 1192 1193
l 1193 1194
l 1194 1195
l 1195 1196
l 1196 1197
l 1197 1198
l 1198 1199
l 1199 1200
l 1200 1201
l 1201 1202
l 1202 1203
l 1203 1204
l 1204 1205
l 1205 1206
l 1206 1207
l 1207 1208
l 1208 1209
l 1209 1210
l 1210 1211
l 1211 1212
l 1212 1213
l 1213 1214
l 1214 1215
l 1215 1216
l 1216 1217
l 1217 1218
l 1218 1219
l 1219 1220
l 1220 1221
l 1221 1222
l 1222 1223
l 1223 1224
l 1224 1225
l 1225 1226
l 1226 1227
l 1227 1228
l 1228 1229
l 1229 1230
l 1230 1231
l 1231 1232
l 1232 1233
l 1233 1234
l 1234 1235
l 1235 1236
l 1236 1237
l 1237 1238
l 1238 1239
l 1239 1240
l 1240 1241
l 1241 1242
l 1242 1243
l 1243 1244
l 1244 1245
l 1245 1246
l 1246 1247
l 1247 1248
l 1248 1249
l 1249 1250
l 1250 1251
l 1251 1252
l 1252 1253
l 1253 1254
l 1254 1255
l 1255 1256
l 1256 1257
l 1257 1258
l 1258 1259
l 1259 1260
l 1260 1261
l 1261 1262
l 1262 1263
l 1263 1264
l 1264 1265
l 1265 1266
l 1266 1267
l 1267 1268
l 1268 1269
l 1269 1270
l 1270 1271
l 1271 1272
l 1272 1273
l 1273 1274
l 1274 1275
l 1275 1276
l 1276 1277
l 1277 1278
l 1278 1279
l 1279 1280
l 1280 1281
l 1281 1282
l 1282 1283
l 1283 1284
l 1284 1285
l 1285 1286
l 1286 1287
l 1287 1288
l 1288 1289
l 1289 1290
l 1290 1291
l 1291 1292
l 1292 1293
l 1293 1294
l 1294 1295
l 1295 1296
l 1296 1297
l 1297 1298
l 1298 1299
l 1299 1300
l 1300 1301
l 1301 1302
l 1302 1303
l 1303 1304
l 1304 1305
l 1305 1306
l 1306 1307
l 1307 1308
l 1308 1309
l 1309 1310
l 1310 1311
l 1311 1312
l 1312 1313
l 1313 1314
l 1314 1315
l 1315 1316
l 1316 1317
l 1317 1318
l 1318 1319
l 1319 1320
l 1320 1321
l 1321 1322
l 1322 1323
l 1323 1324
l 1324 1325
l 1325 1326
l 1326 1327
l 1327 1328
l 1328 1329
l 1329 1330
l 1330 1331
l 1331 1332
l 1332 1333
l 1333 1334
l 1334 1335
l 1335 1336
l 1336 1337
l 1337 1338
l 1338 1339
l 1339 1340
l 1340 1341
l 1341 1342
l 1342 1343
l 1343 1344
l 1344 1345
l 1345 1346
l 1346 1347
l 1347 1348
l 1348 1349
l 1349 1350
l 1350 1351
l 1351 1352
l 1352 1353
l 1353 1354
l 1354 1355
l 1355 1356
l 1356 1357
l 1357 1358
l 1358 1359
l 1359 1360
l 1360 1361
l 1361 1362
l 1362 1363
l 1363 1364
l 1364 1365
l 1365 1366
l 1366 1367
l 1367 1368
l 1368 1369
l 1369 1370
l 1370 1371
l 1371 1372
l 1372 1373
l 1373 1374
l 1374 1375
l 1375 1376
l 1376 1377
l 1377 1378
l 1378 1379
l 1379 1380
l 1380 1381
l 1381 1382
l 1382 1383
l 1383 1384
l 1384 1385
l 1385 1386
l 1386 1387
l 1387 1388
l 1388 1389
l 1389 1390
l 1390 1391
l 1391 1392
l 1392 1393
l 1393 1394
l 1394 1395
l 1395 1396
l 1396 1397
l 1397 1398
l 1398 1399
l 1399 1400
l 1400 1401
l 1401 1402
l 1402 1403
l 1403 1404
l 1404 1405
l 1405 1406
l 1406 1407
l 1407 1408
l 1408 1409
l 1409 1410
l 1410 1411
l 1411 1412
l 1412 1413
l 1413 1414
l 1414 1415
l 1415 1416
l 1416 1417
l 1417 1418
l 1418 1419
l 1419 1420
l 1420 1421
l 1421 1422
l 1422 1423
l 1423 1424
l 1424 1425
l 1425 1426
l 1426 1427
l 1427 1428
l 1428 1429
l 1429 1430
l 1430 1431
l 1431 1432
l 1432 1433
l 1433 1434
l 1434 1435
l 1435 1436
l 1436 1437
l 1437 1438
l 1438 1439
l 1439 1440
l 1440 1441
l 1441 1442
l 1442 1443
l 1443 1444
l 1444 1445
l 1445 1446
l 1446 1447
l 1447 1448
l 1448 1449
l 1449 1450
l 1450 1451
l 1451 1452
l 1452 1453
l 1453 1454
l 1454 1455
l 1455 1456
l 1456 1457
l 1457 1458
l 1458 1459
l 1459 1460
l 1460 1461
l 1461 1462
l 1462 1463
l 1463 1464
l 1464 1465
l 1465 1466
l 1466 1467
l 1467 1468
l 1468 1469
l 1469 1470
l 1470 1471
l 1471 1472
l 1472 1473
l 1473 1474
l 1474 1475
l 1475 1476
l 1476 1477
l 1477 1478
l 1478 1479
l 1479 1480
l 1480 1481
l 1481 1482
l 1482 1483
l 1483 1484
l 1484 1485
l 1485 1486
l 1486 1487
l 1487 1488
l 1488 1489
l 1489 1490
l 1490 1491
l 1491 1492
l 1492 1493
l 1493 1494
l 1494 1495
l 1495 1496
l 1496 1497
l 1497 1498
l 1498 1499
l 1499 1500
l 1500 1501
l 1501 1502
l 1502 1503
l 1503 1504
l 1504 1505
l 1505 1506
l 1506 1507
l 1507 1508
l 1508 1509
l 1509 1510
l 1510 1511
l 1511 1512
l 1512 1513
l 1513 1514
l 1514 1515
l 1515 1516
l 1516 1517
l 1517 1518
l 1518 1519
l 1519 1520
l 1520 1521
l 1521 1522
l 1522 1523
l 1523 1524
l 1524 1525
l 1525 1526
l 1526 1527
l 1527 1528
l 1528 1529
l 1529 1530
l 1530 1531
l 1531 1532
l 1532 1533
l 1533 1534
l 1534 1535
l 1535 1536
